<?xml version="1.0" encoding="UTF-8"?>
<svg id="_レイヤー_2" data-name="レイヤー_2" xmlns="http://www.w3.org/2000/svg" viewBox="0 0 2319.99 769.9">
  <g id="_窯" data-name="窯">
    <g>
      <path d="M2251.05,200.12c-5.51,4.89-7.97,3.38-14.13,7.11-9.05,5.47-20.11,10.24-30.26,13-4.03,1.1-9.45,0-14.72,0s-16.94,10.38-21.16,14c-8.39,7.2-19.9,12.25-29.85,18-8.55,4.94-18.24,6-26.43,8s-14.48,0-14.48,0c0,0,3.25-5,8.65-5s8.63-1,11.86-3c3.23-2,6.45-5,6.45-8s-7.53-6-11.84-13c-4.31-7-3.24-6-3.24-11s-9.72-7-12.97-11-1.08-8,2.16-21-3.86-16.14-8.66-24c-5.6-9.17-5.24-21.28-9.23-31.66,0,0-2.7-13.34-11.41-22.34-8.71-9-2.65-7.72-3.27-14-.9-9.16-20.12-15.01-27.3-19-8.91-4.95-18.35-8.3-28.54-9-12.86-.88-26.58-1.91-39.71-2-6.59-.05-13.28,4-18.82,8s-15.53,3-21.08,5-9.02-2.17-18.89-3c-11.27-.95-23.78.84-34.51,3-9.17,1.84-21.39-1.68-30.65-2.19-11.24-.62-7.49-4.16-11.71-6.81-8.62-5.43-26.37-.07-37.91-.39-10.29-.29-22.84-1.94-32.31,2.39-7.61,3.48-16.69,1-20.03-2-3.34-3-14.45-11-15.56-21-1.11-10-6.66-21-6.66-26s-7.26-5.58-14.42-7c-8.7-1.72-17.41-8.82-26.58-9-8.64-.17-19.09,7-25.39,13-5.26,5.01-13.42,12.34-16.51,18-4.54,8.3,4.06,24.13,5.5,34,1.4,9.6-2.21,9-10.99,13-8.79,4-6.59,11-13.17,15-6.58,4-12.04,0-15.32-2s-12.02,5-22.02,8.09c-10,3.09-13.93,3.91-17.18.91s-14.25,2.9-20.55,7c-11.18,7.27-30.97,3.69-44.53,6.5-10.55,2.19-19.29,12.78-25.5,21-3,3.98-6.35,13-10.57,16-4.22,3-10.53,9-15.78,16s-10.99,16.5-13.08,19.5c-2.09,3-4.18,3-9.38,8-5.2,5-4.16,9-7.27,10s-3.11,11-7.25,16c-4.14,5-8.27,15-14.45,20-6.17,5-8.22,9-9.24,12-1.02,3-5.12,7-3.07,9s6.15-3,7.18-2c1.03,1-6.15,5-8.2,6s-3.07,12-3.07,14,3.07,5,4.09,6,0,8,2.05,9c2.05,1,7.18-4,9.24-6s6.17,0,10.31-2c4.13-2,6.2-.09,11.38-5,17.6-16.68,37.64-33.06,53.42-51,7.69-8.74,21.73-17.45,25.47-28,2.54-7.18,7.46-10,11.74-13s4.28,3,4.28,5,0,5.07-5.35,13c-9.05,13.39-19.08,26.82-29.79,39-11.18,12.71-21.24,26.59-32.66,39-8.28,9-15.68,13-19.84,18-4.16,5-14.58,11-15.56,12-8.2,8.43-17.48,18.63-22.64,29-3.24,6.51-12.26,14-16.33,19s-7.11,4-8.12,10-7.08,13-9.1,13-2.02,4-2.02,7-4.03,3-7.04,6-5.02,6-5.02,9,5.02,1,6.02-3c1-4,3.02-1,6.04-2s3.03,0,4.04-4c1.01-4,5.06-5,6.07-7,1.01-2,3.04,0,4.05,3,1.01,3,3.04,4,8.13,4s3.06,2,3.06,3,4.08,0,6.13,1,.39,5.9,1.02,9c.51,2.5-4.6,11.5-4.09,14,.6,2.94-3.06,0-4.08,3s-8.14,7-9.16,8c-1.02,1-1.01,3-1.01,4s5.06-1,13.23-6c8.17-5,17.42-14,20.5-17s6.18,1,9.28,0,4.14-5,6.21-8,5.19-1,6.22-4c1.04-3,5.2-4,8.32-4s4.17,0,4.17,3,1.03,3,8.36,3,6.28,0,9.43-3,5.25-8,6.31-10,5.26-6,8.43-6,3.17-1,5.28,1c2.11,2,3.17,8,2.11,12s5.29,3,8.47,3,2.12,4,2.12,8,3.18,4,10.63,4,4.26-4,10.66-10c6.41-6,7.48-13,8.55-17s4.28-3,9.65-8c5.37-5,8.59-2,13.98-5,5.39-3,5.39-5,7.55-9s6.48-7,11.89-14c5.41-7,10.83-12,17.35-19s10.88-10,11.97-11,2.18-9,3.27-13c1.09-4,4.36-4,5.45-5,1.09-1,3.27,0,4.37,2s1.09,4,3.28,7c2.19,3-1.09,11,0,13,1.09,2,6.56,0,6.56,4s1.09,14,1.09,17,4.38,2,6.57,3,1.09,5,4.38,6c3.29,1,6.58,12,7.68,13,1.1,1,9.88,0,15.39,1,5.5,1,5.5,3,8.81,5s11.02,2,15.82,2.25c4.79.25,7.35-1.25,13.99-1.25s5.53,0,5.53,2-2.21,4-3.32,9-2.21,4-5.53,5-13.26,1-18.77,1-14.33,1-20.92,2c-6.6,1-14.28,1-19.76,1s-10.95,2-16.42,4-6.55,6-8.74,8c-2.18,2-6.54,4-10.9,8q-4.35,4-4.35,9c0,5,1.09,6,4.35,7,3.27,1,4.36,2,5.45,5,1.09,3,3.27,5,7.63,10,4.37,5,7.65,11,8.74,13,1.09,2,14.23,3,21.91,3s7.69,6,10.98,10c3.3,4,5.5,4,9.9,4s4.41,6,5.51,9c1.1,3,1.1,7,3.31,10,2.2,3,0,10-1.1,12s-2.2,1-3.31-1-7.71-2-16.51-2-16.48,2.01-24.13,3c-11.95,1.54-23.99,2.88-36,4-10.85,1.01-11.94,5-14.11,6-2.17,1-14.07-1-17.3-1s-8.63,3-11.85,4-9.67-1-11.82-1-8.58,5-14.99,5-12.8,4-20.24,4-9.55,3-13.78,8-11.64,9-24.22,10c-12.59,1-20.9,7-21.94,7s-12.46,5-16.6,6c-4.14,1-8.26,2-12.38,3s-6.17,4-10.27,6c-4.1,2-1.03,5-4.09,6s-2.05-6-5.11-3-7.13,6-11.19,10-5.07,2-8.11,3c-3.03,1-7.07,4-12.1,8-5.03,4-3.02,6-6.02,10-3.01,4-5.01,6-5.01,8s0,8,5.01,13c5.01,5,5.01,7,10.05,7s7.06,1,11.11-2c4.05-3,17.27-10,24.44-10s10.25-1,17.47-3,7.22-1,13.44-2,8.31-3,11.43-4c3.12-1,12.52,0,17.76,0s4.19-1,6.3-4,8.41-4,11.58-6,5.28-3,7.23-2.87c1.95.13,10.75-1.13,11.81-.13,1.06,1,0,2-1.06,4-1.06,2-3.18,2-5.3,3-2.12,1-3.18-1-4.23.76-1.06,1.76-2.11,2.24,0,4.24s2.1,2,11.65,2,9.56-1,12.76-4,12.81-5,16.02-6c3.21-1,6.42,2,11.79,2s11.81-6,22.61-6,10.81-4,18.4-6,11.94,0,20.65-2,18.55-4,21.83-5,10.05-2.34,16.72-4c8.86-2.21,20.23-.18,29.4,0,11.88.23,9.92-3,13.24-4,3.31-1,9.98.95,22.11,1,13.18.05,27.66,1.95,39.93,0,4.21-.67,8.89,0,11.11-1,2.22-1,5.56,0,8.9-5,3.34-5,1.11-5,1.11-5h-11.12c-4.45,0-7.81,1.98-17.78,2-9.95.02-29.85,1.3-32.15-2-.49-.7,1.11-2,4.43-4s4.43-2,9.97-2,5.54,3,8.1,3,6.32,1,9.65-1,6.66-3,8.89-4c2.22-1,6.67-4,8.4-3.52s8.28.52,10.5.52,1.11-2,5.56-2,2.23,3,4.45,6,7.79,3,11.14,2c3.34-1,4.46-5,7.8-6s4.46,0,7.8,2c3.34,2,8.92,1,18.95,1h28.99c7.81,0,18.96,1,21.19,3s6.69,1,11.15,1,6.69,1,6.69-2,4.46-3,11.14-2c6.68,1,6.68,5,8.91,5s8.9,0,10.02-2,7.79-5,11.12-5,4.45,1,7.78,4,6.67,2,11.11,1,4.44-4,5.55-6,6.66-2,10.6-5.29c3.95-3.29.49-5.71-.62-7.71s0-4,1.11-7-1.11-6-3.33-8-16.64-1-26.64-2-11.12,4-15.57,4-10.01-4-16.7-4-16.71-1-17.82-5c-1.11-4-11.15-3-14.74-4-3.59-1-10.9,1-17.35,0-6.45-1-20.32,0-25.89,0s-20.13-1.07-27.26-1.8c-10.42-1.06-21.44-1.37-31.79-.2-7.68.87-12.24-2-13.35-1.78-1.11.22,0-7.22,0-12.22s3.34-10,4.45-12,3.34-1,6.4-1.37c3.07-.37,5.83-.63,8.06-1.63,2.23-1-3.34-5-4.45-7s2.23-1,6.68-3,4.45-4,3.34-5,0-3,0-6-1.11-4,2.23-6c3.34-2,5.57-4,12.25-5s5.57-2,8.91-5c3.34-3,6.69-3,10.03-4s4.46-2,10.03-2,5.58,0,7.81-2,1.12-2,1.12-4-1.12-3,1.12-8c2.23-5,1.12-4-2.23-7-3.35-3-2.23-4-2.23-6s1.12-2,4.46-3c3.35-1,5.58-7,8.92-10s11.15-11,12.27-14-3.35-1-5.58-1-1.12-3-2.23-4-7.81,1-12.27,1-11.15,1-12.27,1-6.69,4-8.92,5c-2.23,1-4.46,1-13.38,1s-13.37-1-18.94,0c-5.57,1-5.57,4-6.68,2-1.11-2,3.34-4,3.34-6s5.57,0,10.02,0,6.68,0,6.68-1,3.34-4,4.46-6-3.34-1-6.69-1-7.8,0-11.14,1c-3.34,1,0-2,2.23-3s6.68-4,3.34-5c-3.34-1-2.23-5-6.68-5s-8.91,1-12.24,2c-3.34,1,0-5,3.34-10,3.34-5,14.47-7,18.93-9s11.14,2,12.26,0c1.11-2,11.15-6,10.03-11-1.11-5,1.11-6,4.46-7s4.46,3,5.57,5c1.11,2,12.27,5,13.38,1s7.81-6,11.15-10c3.35-4,10.04-5,11.15-8,1.12-3,2.23-2,7.81-2s16.72-1,20.06-4c3.34-3,6.69-3,10.03-4s4.46-2,5.57,0c1.11,2,3.34,2,4.45,4.15,1.11,2.15,0,7.85,0,12.85s5.47,8.39,7.79,12c4.97,7.74,15.24,15.43,24.46,17,8.32,1.41,16.66,7,19.98,9s2.22,8,7.76,11c5.54,3,13.29,1,17.72,4s6.64,3,13.26,3,8.83,4,15.45,4,14.31,2,18.27-1.87c3.96-3.87,8.13-3.13,15.81-3.13s6.58,2,10.95,3,9.84-4,15.3-6c5.46-2,9.81-1,13.47-2.68s14.83-.32,22.41-6.32c7.58-6-6.5-5-9.76-6-3.26-1,0-5-7.6-8s-4.35-7-4.35-12,4.35-12,9.23-14.97,8.15-2.03,10.31-5.03c2.17-3,10.82-11,16.22-14,5.4-3,10.8-3,24.75-6s17.13-4,23.52-10c6.39-6,11.71-10,17.8-12.9,6.09-2.9,14.02-5.1,21.39-10.1,7.37-5,6.31-6,4.21-6s-3.15-1-.93-6.56c2.23-5.56.93-4.44-2.6-6.56-3.53-2.11-4.9-4.89-4.9-9.89s9.49-8,21-15,13.57-13,16.69-15c3.12-2,12.46-9,20.72-15,8.25-6,14.4-19,14.4-19-4.1,3-9.24,8-14.75,12.89ZM2090.82,255.73c-4.34,3-5.43,2.97-16.29,2-17.16-1.54-34.69-2.83-51.78-3-8-.08-16.1-4-20.51-4s-11.02,4-16.54,4-7.73-1-12.16-4c-4.42-3-6.64-4-12.17-5-5.54-1-7.75-4-13.3-6s-6.66-6-7.76-10c-1.11-4-8.88-7-12.21-8-3.33-1-1.44-4.08-5.56-11-6.3-10.58-11.24-25.27-12.36-37-.44-4.63-5.44-4-9.89-4s-9.11,5.51-15.59,8c-3.9,1.5-3.9.5-5.01,1.5q-1.11,1-1.11,4c0,3-1.11,8-1.11,11s-2.23,4-3.34,10c-1.11,6,0,18,0,21s-3.34,1-3.34,4-1.11,3,3.34,3,3.34,1,4.46,4c1.11,3,2.23,19,2.23,23s-3.34,2-4.46,3c-1.11,1-11.14,1-15.6,1s-5.57,3-8.31,4c-2.73,1-8.42,0-11.76,0s-5.58-2-5.58-4-7.81-4-8.92-4-3.35-3-3.35-6-4.46-5-5.58-10c-1.12-5-1.12-8.96-1.12-22,0-7-3.35-14-3.35-18,0-6.08-2.23-6-3.35-11-1.12-5,0-13,1.12-16,1.11-3-4.46-2-7.8-2s-3.34,3-4.46,6c-1.11,3-4.46,5-6.69,5s-1.11,6-1.11,9-2.23,0-6.69,0-3.34,0-4.46,2.99-3.34,7.01-2.23,8.01c1.11,1,2.23,3,2.23,5s-2.23,2-3.34,2-2.23,4-2.23,9-3.34,3-6.68,6c-3.34,3-5.57,7-7.79,10-2.23,3-3.34,5-3.34,11.26s-1.11,12.74-1.11,15.74,1.11,9,1.11,11-5.56,2-10.01,3-8.9-1-14.45-2c-5.55-1-4.44-2-8.88-3s-7.77-1-8.88,1-7.76,1-7.76-1-4.43-1-8.86-1-3.32,1-3.08-4.56c.24-5.56,3.08-4.44,3.08-7.44s-1.11-4-2.21-6c-1.11-2,0-4,2.21-5,2.21-1,1.11-4,0-7-1.11-3-4.43-1-4.43-4s-1.11-5-4.43-7c-3.32-2-2.21-4-3.32-6-1.11-2,0-7,1.11-8,1.11-1-3.32-3-5.53-5-2.21-2,0-7-2.21-8-2.21-1-14.35,10-19.86,14s-11.01,8-14.31,10c-3.3,2-5.5,3-5.68,5.78s-.92,7.22.18,12.22c1.1,5,2.2,5,2.2,12s-2.2,12-4.4,15c-2.2,3-2.2,6-7.68,11s-13.15,8-15.34,3-5.47-5-7.65-6c-2.19-1-3.28-3-3.28-4s0-5-2.18-6c-2.18-1-1.09-3-3.27-7-2.18-4-3.27-3-6.1-4.48-2.83-1.48-2.62-1.52-.44-5.52,2.18-4-4.36-4-6.53-6.49s0-7.51,0-9.51-6.53,0-10.87-2-6.51-8-6.51-13,0-10-3.25-13c-3.25-3-4.33-5-5.25-10.11-.92-5.11-2.32-3.89-3.41-5.89-1.08-2-2.16-4-2.16-9s-3.96-5.89-2.16-7c3.24-2,4.32-8,7.57-8s4.33-3,7.58-5c3.25-2,6.51-1,9.76,1,3.26,2,4.34,4,8.7,4s4.35,4,7.62,4,5.45-3,9.82-7,5.46-4,7.65-4,4.37-2,6.56-3,3.28,3,3.28,6,4.38,2,9.87,0,5.49-6,8.78-6,3.3,2,5.5,4,14.31,3,22.03,2c7.72-1,13.25-10,17.67-10s4.42,5,6.64,7,6.64-2,16.61,0,12.2,2,19.97,2,6.66-3,11.11-4c4.45-1,15.57,1,18.91,1s5.56-2,5.56-4,0-2,2.23-2,4.45-2,4.45,2,4.45,6,6.68,5c2.23-1,7.8-2,12.26-6s16.72-3,23.41-4,8.92,7,12.27,7,8.92-3,13.38-5c4.46-2,10.04,2,24.53,1,14.49-1,13.37,4,17.83,0,4.46-4,14.48-7,21.16-10s5.56-4,6.68-8,1.11-5,5.56-4,6.67,2,8.89,0c2.22-2,6.67-2,12.22-1s1.11,5,2.22,8,14.42,5,14.42,8,8.87,11,13.3,18,11.07,11,15.49,13,8.84,9,17.66,13.67c8.82,4.67,16.52,9.33,18.72,12.33s0,6,0,11-1.1,5,4.4,7c5.49,2,12.08,4,15.37,4s8.76-9,12.05-10,8.74,0,12.02,0,3.27,7,3.27,9,5.45,2,7.63,3,1.09,3,1.09,6,5.44,5,7.62,4,3.26-4,4.35-5c1.09-1,3.8-3.5,5.97-.5,2.17,3,8.67,6,13,8,4.33,2,4.32,4,4.32,5s-1.08,1-5.41,2-5.41,3-9.75,6Z"/>
      <path d="M1376.85,656.23c-2.55,3.5,1.01,11-6.1,15s-13.16,9-10.13,13c3.03,4,.51,2.5.51,8.5s-.56,14.34,4.78,15.17c5.34.83,6.37,1.83,7.38,9.83,1.02,8,3.05,7.65,3.05,12.33s-1.03,10.67,5.1,10.67,2.04,3,7.15,3,6.15,0,9.23,3,7.2,0,11.33,2c4.13,2-.03,4,12.42,5,12.45,1,22.92,0,26.06-2s6.29-3,7.34,0,2.1,4,6.31,4,10.54,0,13.71-2,3.17-3,9.53-4c6.36-1,10.62-1,15.95,0s11.74-2,16.02-2,6.43-1,9.65-3c3.22-2,2.68-4.5,1.61-6.5-1.07-2-5.36-2-7.51-3s-7.49-1-7.49-1c-2.14-2,1.07-4-3.21-5s-12.8,0-14.92-1-4.25-5-5.31-6c-1.06-1,0-6,1.06-6s0-3,2.13-6c2.13-3,2.13-6,5.32-9,3.19-3,2.13-5,5.33-6,3.2-1,5.34,0,5.34-3s-1.07-5-5.34-5-8.52,0-7.46-1,2.13-3,6.39-4c4.26-1,5.33-4,7.47-4s6.42,1,6.42-2,0-5,4.28-6,5.36,0,9.66-4,2.15-4,5.37-5,3.23-4,2.15-4-6.45-1-9.67,0c-3.22,1-6.44,1-7.51,0s-11.77,0-17.1,0-8.52,0-11.71,2c-3.19,2-5.31,3-5.31,0v-9c0-2-4.15,0-6.31,0-10.67.04-21.74.38-32.17-.89-7.72-.94-18.56.11-24.65,0-6.09-.11-14.35-1.11-16.41.89s-7.21,3-7.21,5-3.08,1-5.14,1-3.08-2-2.05-3,3.08-1,4.1-3,3.08-4,0-4-5.13,2-8.2,3-9.72,4.93-11.23,7Z"/>
      <path d="M1575.28,647.23c-4.87,2.99-6.51,5-6.51,9s-2.17,8-4.34,9,0,3-1.08,7c-1.08,4-2.17,6,3.25,10s5.42,8.01,8.68,10.5c3.26,2.5.93,6,3.73,8.25,2.79,2.25,2.79,4.25,2.79,8.25s4.35,5,5.44,6c1.09,1,2.18,3,5.45,5,3.27,2,4.36-2,5.45,1,1.09,3,1.09,4,8.74,4s10.94,0,12.03,2,4.38,5,5.48,6c1.1,1,7.68,1,10.97,1s7.69-3,12.09-4,9.91-5,13.22-8,5.51-1,9.93-3,8.84-8,12.15-8,8.85,0,9.96-4,2.21-7,6.64-10c4.43-3,5.72-7,7.85-6.5,2.13.5,6.56.5,8.78-1.5,2.22-2,2.22-3,1.11-5-1.11-2-5.55-1-6.66-3-1.11-2-1.11-5-1.11-7s-2.22,0-3.33-2-1.11-3-3.32-3-3.32-1-3.32-3-1.11-2,2.22-2,3.32,1,6.65,0,5.54-1,5.54-4,0-4,2.22-4,4.44,1,6.66-1,4.44,0,4.44-2,1.11-5.72,0-7.36-2.22-1.64-6.66-1.64-6.66,1-9.98,1-5.54-2-7.76-1-4.43,2-4.43,1,0-3,1.11-3,3.32,0,4.43-1c1.11-1,3.04-1,3.74,0,.7,1,.7,2,2.91,2s6.66,0,8.87-1,5.55-1,6.66,0c1.11,1,2.22,2,4.44,1,2.22-1,4.45-1.68,4.45-2.84,0-1.16,2.22-2.16,5.55-2.16s4.45,0,3.34,2q-1.11,2,1.11,2c2.22,0,7.41-.68,8.71-1.84,1.3-1.16,1.3-2.16,3.53-3.16q2.23-1,3.34-2c1.11-1,2.23-2,3.34-2s1.11-3,1.11-3c-1.11-1-2.23,0-4.45,1-2.23,1-3.34,0-6.68,1s-6.67,0-6.67-1-2.22,0-4.45,0-4.45,1-8.89,1-12.22,2-12.22,1-5.55-1-11.09-1-8.87-1-13.3-1-11.07,2-15.49,2-13.85-3.83-17.96-3.41c-4.12.41-7.42,1.41-12.93,1.41s-5.5,2-8.8,2-5.49,0-6.59-1c-1.1-1-9.88-1-12.07,1-2.19,2-1.1,2-7.67,2s-10.94-2-12.03-2-1.09-2-5.46-2-7.63,0-8.72,2-4.95,6.32-7.37,7.16c-2.42.84-2.42,1.84-3.51,3.84-1.09,2,0,1-3.26,3Z"/>
      <path d="M1770.45,631.23c-3.94,3.54-16.7,11-16.7,15s-2.23,19.32,0,21.66c2.23,2.34,1.11,5.34,4.45,8.34,3.34,3,2.35,6.71,3.4,11.36,1.05,4.64,1.05,9.64,4.39,11.64,3.34,2,10.02,11,14.48,12s5.69,6.18,10.03,7c10.47,1.99,23.01,3.36,33.45,2,5.35-.7,13.38-5,16.73-8,3.35-3,4.46-6.95,8.36-9.48,3.9-2.52,5.02-1.52,8.36-4.52,3.34-3,5.57-6,4.46-9-1.11-3-2.23-7-1.11-8s5.57-1,10.03-1,8.91-1,11.14-2,1.11-5,1.11-6-1.11,1-7.8-1c-6.69-2-8.92-2-8.92-8s-2.23-9,0-11,1.11-7,4.46-7,11.14-1,14.48-2c3.34-1,6.68-6,11.13-7,4.45-1,6.68-2,10.02-3,3.34-1,7.79-7,6.67-8s-5.62,1-9.49,0c-3.86-1-8.54.42-17.89-.29-9.35-.71-12.1-1.45-14.63-.08-2.53,1.37-3.64,1.37-6.99,2.37-3.34,1-4.46,3-6.69,1s-1.67-3.28-7.52-4.14-8.09,1.14-14.78,1.14-10.96-.71-15.52-1.35c-4.56-.65-23.51-1.65-26.85-1.65s-7.8,2-12.26,3-5.57,2-10.03,6Z"/>
      <path d="M2227.6,612.23c-2.3,0-.03-5-1.08-7s6.25-3,11.43-6,5.18-7,9.32-13q4.13-6,4.13-9c0-3,3.09-6,4.12-8,1.03-2-4.12-4-5.15-7-1.03-3,3.09-5,5.15-10,2.06-5-3.09-6-4.12-9-1.03-3,3.09-4,5.15-9,2.06-5,1.03-5,5.14-9,4.11-4,7.18-4,10.25-5,3.07-1,1.02-6,2.04-9s4.09-6,7.14-10c3.06-4,4.07-3,6.1-8,2.03-5,0-5,1.17-9.48,1.17-4.48-2.18-7.52.86-18.52,3.04-11,1.01-11,1.01-16s-2.03-8-3.05-13c-1.02-5-1.02-9,0-12,1.02-3,0-6,3.05-8,3.04-2,4.05-2,4.05-4s3.04-7,8.08-12,0-6-1.01-7c-1.01-1-3.03,0-1.01-5,2.02-5,6.05-10,10.07-14,4.02-4,5.02-9,8.02-14,3-5,1-6-2-4s-5.01,6-9.04,9-3.01,6-8.07,11c-5.05,5-7.08,9-8.1,12-1.01,3-1.01,5-2.03,6s-3.05,1-4.06,4c-1.02,3-12.23,11-15.3,15-3.07,4-4.1,9-4.1,12.9s-2.05,3.1-6.16,6.1-4.11,8-8.24,8-3.1,4-3.1,7-6.2,8-10.35,10-5.19,3-6.23,7c-1.04,4-6.24,8-12.5,13s-9.42,7-10.46,9c-1.05,2-7.35,8-10.5,12-3.16,4-9.48,10-13.71,16-4.23,6-6.34,7-10.59,9-4.24,2-10.62,6-12.75,10s-2.13,7-5.33,8c-3.2,1-6.4,5-9.61,9s-10.7,10-16.07,11c-5.37,1-10.75,5-18.3,8s-10.8,3-16.21,3-3.25,4-6.5,4-5.43,1-7.6,4c-2.17,3-13.18,7.4-18.5,10-8.27,4.04-18.95,4.8-28.43,6-7.65.97-12.07,7-15.37,9-3.3,2-14.3,1-19.65,2s-12.28,5-22.74,5h-21.63c-6.65,0-18.85-2-26.63-2s-18.9-3-24.46-3c0,0,.15,4,2.86,5,2.71,1-1.74,6,1.59,7s2.85,3,6.98,3,9.69,0,8.58,1c-1.11,1-3.33,3-6.67,5s-5.56,4-6.67,7-4.45,3-3.34,8c1.11,5,2.57,9.84,5.74,11.92,3.16,2.08,4.27,5.08,6.5,9.08s6.67,13,10,14,8.88,6,9.99,9,5.55,3,6.66,4,1.11,7,5.54,7,6.54-1,8.25,0c1.72,1,1.72,4,6.15,4s9.6-2,11.99,0c2.39,2,1.28,7,4.6,7s21.53,1,22.35,0,4.12-3,10.72-4c6.6-1,9.9,1,20.86,1s15.55-2.82,19.69-5c10.29-5.43,26.23-4.97,38.07-10,22.15-9.41,50.02-18.56,67.67-32,3.13-2.38,6.39-2,13.81-7,7.42-5,16.91-12,21.12-16,4.21-4,18.88-14,20.97-15s7.31-1,11.47-4-2.01-5-2.05-5Z"/>
    </g>
  </g>
  <g id="_レイヤー_4" data-name="レイヤー_4">
    <path d="M1078,119.73c-3,1-6,5-8,8s-5,7-4,11,2,7,2,11-4.4,6.5-2.2,11.25,4.2,5.75,4.2,11.75-2,11-1,13,3.19,6.21,2.59,8.6-2.41,5.87,0,7.63,2.59,10.25,0,14.51-7.22,10.71-6.41,12.99-.19,2.27-4.19,2.27-3-3-7-3-5,5-10,4-6.1.26-14.05.13-8.95-2.13-11.95,1.87-4,5-7,4-5.75,2.08-6.37,5.04-3.13-.54-5.13-1.54-5,1-8,1-5,0-11,0-10,4-12,4-1-1-10-1-10,2-18,2-18,0-20,1-1,4-4,4-5,0-5-2-5.19,2-7.1,2-9.9,2-17.9,3-10,1-11-1-5,3-7,3-5,1-8,1-2,3-6,3-5-1-6,3-2,5-4,9-4,4-4,9,1,4.4,0,8.2-3,5.43,0,8.12,6,1.68,8,1.68,1,3,5,5,8,1,10,2,2,3,6,4,3,4,9,3,8-1,10-1,10,3,17,3,11.87-4,14.93,0,7.07,8,12.07,8,6-1,12-3,7,3,9,1,7-3,7,0,3-1,3,2,0,4,5,4,6.66-2,8.33,0,11.42,0,14.05,0,10.83.78,16.73.89,7.72-1.11,13.31,0,11.11-1.1,16.35,0-.76,4.1,5.24,6.1,4-1,6,2,2,3,6,3,9,0,8,6,4,4,4,8-2,3-2,9,2.82,10.67,2.41,16.84-3.41,12.16-3.41,21.16-1,14-4,16-3,1-4-4-2.74-4.43-4.87-1.21-6.13,2.21-9.13,2.21-1,.93-5,3.97-9,2.03-13,2.03-5,1-9,5-8.75,12.94-9.87,10.47.13-7.96,0-10.72.87-3.75,2.87-3.75,6,1,7-3-1-2,4-4,4-3,6-5,1-2,5-2,8,3,9,0-1-8-1-13,2-5,1-7-6,0-11,0h-15c-3,0-5.75.69-7.87,2.84s-4.13.16-6.13,2.16-2,9-5,10-7,1-9,4-2,7-5,10-6,6-10,11-5,11-7,12-6,0-10,2-3,5-6,5-5,0-5,3-1,4-3,6-1,5-3,6-6,2-6,5,0,7-2,10-1,2-5,6-2,5-4,6-3,3-4,8-3,10-6,12-2,6-5,8-5,4-5,8-2,7-4,8-2.21-.09-3.11,4.45-1.89,6.55-3.89,9.55-3,1-3,7-7,9-5,13-9,14-10,21-2,18-5,25-6,27-6,32-1,10,1,11,1,7,5,11,7,6,7,10-3,12,1,14,9,6,9,9,4,6,6,6,8.04-1,11.52,0,6.48,3,11.48,2,5-3,4-7-4-5-8-9-13-11-16-17-5-8-8-8-8-1-7-4,6-6,6-9-3-8-5-12-1-9,1-11,6-6,9-10,5-9,9-11,.71-4,2.35-9.5-.35-7.5,3.65-10.5,5-4,7-7,3-9,4-15,3-8,5-10,9-5,9-8,0-13,3-13,13-12,16-14c0,0,17-15,18-30,0,0,4-1,5-2s0-8,1-9,7-11,8-15c0,0-1,6,0,9s0,8,1,9,7,1,7,3,0,3,5,3,8,2,11,4,9,0,13,0h8s0,5,3,4,11-1,11-3,10-3,12-5,2-6,4-6,6,0,8,1,4,4,2,5-10,7-11,8-5,6-3,6,7-1,9-2,4-5,5-5,7,1,9,0,2-5,4-5,3,0,4,3,2,8,7,8,12,1,14,1,1-3,3-3,7,0,9,1,3,4,3,7,8,1,9,1,2,3.87,0,5.94-6,2.06-7,8.06-2,11,1,10,8-10,12-10,12,1,20,1,27-1,33-1,13,0,15,1,1,9-2,11-8,11-12,11-12,5-19,10-7,10-16,12-12,7-14,7,3,2,2,3-3,1-3,2-2,3-2,3c0,0,10-2,12,0s0,6-1,7-6,4-9,4-9,2-8,3,5,4,5,4c0,0-6.5-3-7.25-2.5s1.25,1.5,1.25,4.5-4,4-6,4,2,4,0,5-11,3-13,1-11-4-17-5-11,0-10,2,2,3-3,3-23.74-1.37-25.87-.69-4.13,2.69-6.13,1.69-8-2-11-1,1,2,3,4,2,7,0,6-7,2-7,0-2-4-6-1-6,3-8,3-6,7-8,5-8-3-13-1-9,9-15,7-12-2-15-6-10-7-12-6-4,9-4,8,10,4,6,4-12-3-12-3c0,0,1,6-1,10s-5,8-5,13,0,9,3,9,6,1,6,3-1,6,0,8,3,1,4,4,0,7,0,7c0,0,0,2,4,8s3,13,8,13,12,0,15,2,12,7,10,9-2,3,0,7,8,7,10,5,9.25-.73,8.13.64,5.87,4.36,12.87,3.36,5,11-2,13-3,7,1,6,14-1,21-2,9.26,1.26,13.13,2.13,12.87,3.87,20.87,2.87,16-2,22-2,13,2,19,1,9-3,9-6-3-8,1-8h20c3,0,8,1,8-2s3-6,6-8,10,0,14-2,11-12,14-14,6-6,8-5-3,4-2,7c0,0,2,0,5-3s7-8,10-9,3-3,3-6,0-5,2-5,3-2,3-12c0,0,0-1,1-3s4-3,5-6,1-7-1-10-7-3-13-3-14,0-15-1,1-5-9-5-7,2-15,2-6-3-10-3-8,1-9-1-27,0-31,0-10-1-10-5-1-6,3-6,4-2,4-4-1-2-11-2-13-2-13-8,3-4,6-7,4-5,7-4-1,3,9,2,12,0,15,1,3-1,7-1,7-2,10,0,9,0,12,2,6,4,10,4,9,1,10,3,10,0,13,1,11,5,11,7,19,3,22,2,2-4,5-4,0,4,3,5,5,3,4,5-4,5-3,6,6-5,8-5,3-6,8-8,17-5,21-4,0,3-1,7,0,7,1,8,8-1,9,0,1,3,5,3,6-1,7-5,4-2,4-4-1-5,1-5,4-1,4,1,0,4,2,4,2,3,4,3,9,2,11-1,4-5,9-8,9-4,10-9,2-5,4-5,12-13,12-17-2-6,1-6,9-7,9-10-4-5.39,0-8.7,7-3.3,7-6.3-1-7,2-6,5-1,5-2,3,1,4-2,1-9,3-10,7-1,7-4-6-5-6-8-3-3-2-7,3-4,4-6,0-6,0-9-4-7-4-10,3-13,0-19-5-5-4-11,7-11,2-19-14-17-16-17-4,0-4-3-7-12-13-14-8,0-7-5-4-5-4-6,0-8-2-9-12-1-14-3-4-10-5-10-2-5-5-5-5-5-12-3-13,8-16,7-7,0-12-1-20,0-27,0-66,1-74,2-29,3-31,2-7-2-9-7,1-8,3-9,4-3,7-1,3,0,5,0,5,2,6-1,3-7,2-12,0-5,2-5,4,1,5-1,4-2,6-2-1-5-1-8-1-9-3-12-3-8-4-10-6,1-4-6,4-12,8-14,9,0,11-3,5-6,9-8,13-9,18-8,8-1,17-3,20,1,22,1,5-2,11-2,5,1,13-3,11,0,13-4,4-8,5-8,0,5,5,5,2-2,7-4,6,1,11-1,6-8,10-12,7-5,6-9,0-2,5-1,3,3,7-2,6-12,9-12,6,0,7-5,3-11,5-13,7-8,9-7,7,1,8-2,0-5,0-8,4-1,5-6,2-6,5-9,2-9,3-13-2-7-6-7-5,6-8,5-6-3-12,1-8,0-11,4-12,3-16,3-7-2-11,0-10,1-13,2-8,7-11,7-4-1-11,1-12,0-18,3-14,4-17,9-9,8-8,6,9-9,3-9-7,4-11,2-6-3-9,1-6,6-11,6-10,2-12,0-7-7-9-3-6,8-10,8-9,1-10-2-1-11-7-10-8,2-9-3-1-15-3-17-9-6-10-9-6-4-7-8,2-8-2-9-7-8-9-8-5-1-5-5-6-11-9-14-8-4-12-4-5,0-7-2c-1.41-1.41-3-4-6-3-5.11,1.7-4.5,1.5-4.5,1.5Z"/>
  </g>
  <g id="_レイヤー_3" data-name="レイヤー_3">
    <path d="M361.35,25.25c0,8.91-2.97,11.88-1.98,14.85s3.96,10.89,1.98,19.8-2.38,22.8-2.18,28.72c.2,5.93-.3,32.25-.05,49.78s.6,22.65-.07,34.94c-.67,12.29-1.66,15.26-7.6,18.23s-6.93,4.95-14.85,4.95-12.87-4.95-16.83-2.97-15.62,5.94-21.67,2.97-10.01-1.98-19.91-1.98-32.88,3.13-41.69,3.05-21.67-2.06-30.58-1.07-17.57,3.13-18.19,1.07-2.6-3.05-5.57-4.04-3.96-2.97-3.96-3.96-6.93-1.98-13.86-1.98-13.86.99-15.84-.99-5.94-4.95-12.87-3.96-12.87,3.96-14.85,0-11.88-9.9-13.86-12.87-1.98-5.94-13.86-4.95c-11.88.99-31.68-.99-37.62-3.96s-9.9-6.93-11.88-6.93-1.98,3.96-2.97,4.95-3.96,1.98-8.91,0-4.95-5.94-7.92-4.95-3.96,4.95-6.93,4.95-2.97,4.95-2.97,5.94-2.97,1.98-4.95,3.96-.99,2.97-1.98,5.94-1.98,5.94-1.98,7.92,0,4.95-.99,6.93-1.98,4.95-.99,6.93,1.16,3.71-.41,4.82c-1.57,1.12-2.56,6.07-2.56,8.05s2.97,5.94,2.97,7.92,1.98,8.91,1.98,12.87,6.93,10.89,8.91,12.87,10.89,5.94,11.88,8.91,2.97,4.95,5.94,5.94,6.93,8.91,9.9,9.9,2.97,3.96,4.95,5.94,6.93,5.94,9.9,7.92,7.92,1.98,8.91,3.96,2.97,3.96,6.93,4.95,2.97,4.95,7.92,8.91,10.89,2.97,12.87,4.95,2.97,4.95,7.92,5.94,9.77,0,13.3,0,7.49.99,8.48,2.97,1.98,2.97,1.98,5.94,0,2.97-1.98,2.97-1.98,3.96-3.96,4.95-4.95,3.96-4.95,7.92-1.98,7.92.99,7.92,6.93.99,10.89.99,5.94-2.97,9.9-1.98,11.88,3.96,16.83,2.97,1.98,1.98,8.91,2.97,10.89,1.98,14.85,1.98,10.9-.99,11.39,0,6.93,3.47,5.94,10.4-4.95,9.9,2.97,9.9,17.82-.99,21.78,1.98,11.88,2.97,15.84,7.92,4.95,3.96,9.9,4.95,11.88,4.95,14.85,3.96,4.95-5.94,7.92-5.94,4.95,0,2.97,3.96-2.97,9.9-1.98,12.87-3.96,14.85-5.94,16.83,0,1.98-1.98,4.95-3.96,5.94-3.96,8.91,1.98,3.96.99,8.91.99,7.92-1.98,10.89-10.89,17.82-14.85,22.77-13.86,9.9-14.85,13.86-5.94,18.81-10.89,20.79-10.89,0-9.9,1.98,2.97,8.91,0,10.89-5.94,2.97-8.91,2.97-1.98,2.97-3.96,4.95-1.98,3.96-1.98,6.93-.99,6.69-4.46,9.29-6.44,7.54-9.41,7.54-2.97.99-2.97,3.96.99,7.92-2.97,9.9-9.9,8.91-12.87,10.89-15.84,11.88-19.8,16.83-4.95,8.91-7.92,9.9-20.79,1.98-28.71,9.9c-7.92,7.92-13.86,7.92-13.86,10.89s.99,5.94-2.97,8.91-11.88,9.9-13.86,13.86-8.91,12.87-10.89,15.84-4.95,7.92-5.94,4.95-1.98-.99-3.96,2.97-4.95,8.91-6.93,10.89-4.95,3.96-1.98,5.94.99,8.91,0,10.89-.99,7.92-3.96,9.9-3.96,5.94-.99,7.92,3.96,7.92,8.91,8.91,11.88,4.95,13.86,8.91,8.91,9.9,12.87,12.87,14.85,7.92,18.81,10.89,2.97,8.91,8.91,8.91,11.02-.99,14.42,0,13.3,3.96,15.28,1.98,7.92-4.95,8.91-8.91,3.96-3.96,6.93-4.95,6.93-4.95,10.89-8.91,12.87-14.85,15.84-18.81,4.95-7.92,7.92-8.91,5.94-1.98,7.92-.99.99,7.92.99,9.9-4.95,8.91-6.93,10.89-5.94,10.89-7.92,12.87-2.97,4.95-2.97,8.91,7.92-.99,10.89-.99,9.9-7.92,11.88-8.91,6.93-5.94,9.9-9.9,6.93-7.92,10.89-7.92,2.97-5.94,5.94-5.94,6.93-2.97,10.89-5.94,5.94-4.95,8.91-7.92,6.93-2.97,8.91-2.97,2.97-2.97,5.94-3.96,6.93-1.98,6.93-4.95-1.98-7.92.99-7.92,5.94.99,6.93-.99-.99-12.87,2.97-13.86,6.93-2.97,8.91-2.97,4.95.99,5.94-.99,2.97-3.96,2.97-5.94-.99-3.96.99-4.95,1.98-3.96,3.96-4.95,3.96.99,5.94-3.96,4.95-5.94,5.94-7.92.99-6.93.99-10.89,0-6.93.99-7.92,1.98-2.97,4.95-5.94,3.96-2.97,4.95-6.93.99-5.94,1.98-7.92-.99-6.02,2.48-6.48,3.47-2.43,6.44-4.41,3.96-3.96,3.96-5.94.99-10.89.99-12.87,2.97-3.96,2.97-4.95,1.45-3.55,1.71-8.21.27-21.49.27-25.45,0-7.92.99-9.9.99-3.96,2.97-5.94,1.98-.99,4.95-3.96,2.97-5.94,4.95-6.93,2.97-1.98,2.97-4.95,1.98-8.91,0-9.9-1.98,0-3.96,0-.99,0-1.98,2.97-1.98,3.96-4.95,3.96-6.93.99-6.93,0,0-2.97-1.98-4.95-3.96-2.97-3.96-5.94.99-1.98.99-5.94.99-10.89-.99-10.89-4.95.99-4.95,0,0,1.98-1.98,2.97-3.96,1.98-5.94-.99-3.96-3.96-.99-7.92,2.97-7.92,5.94-8.91,2.97-2.97,2.97-5.94,1.98-5.94,2.97-7.92,1.98-7.92,1.98-10.89,0-4.95,1.98-6.93,4.95-9.9,5.94-11.88.99-6.93.99-9.9,0-10.89-1.98-13.86-2.56-5.77.2-5.85,9.81,2.07,11.73,0,3.9-3.06,3.9-1.08,0,2.97,3.96,2.97,27.72,3.96,32.67,2.97,11.88-3.96,13.86-1.98,16.83,0,21.78,0,12.48-2.8,16.14-2.88,7.39-.9,11.96,0,12.49.9,13.48-4.05,2.97-7.92,5.94-5.94.99,5.94,5.94,3.96,6.93.99,9.9,0,4.95-.99,4.95-4.95,6.93-4.95,6.93-3.96,0,6.93,1.98,6.93,4.95-2.97,6.93-.99,0,4.95,1.98,5.94,1.74,2.15,5.32,3.06,7.55,1.89,6.56,2.88-5.94,1.98-5.94,3.96,1.98,5.94-3.96,7.92-7.92,5.94-10.89,5.94-1.98,3.96-3.96,5.94-2.97,4.95-2.97,7.92,0,9.9,1.98,9.9,4.95,0,4.95,2.97-1.98,9.9,1.98,10.89,4.95,6.93,7.92,9.9,1.98,11.88,5.94,12.87,5.26,3.49,5.1,6.7,3.81,16.07,9.75,26.96,12.87,21.78,16.83,28.71,10.89,14.85,11.88,18.81,2.97,13.86,6.93,19.8,11.88,11.88,12.87,16.83,1.98,13.86,7.92,20.79,21.78,31.68,25.74,33.66,9.9,12.87,9.9,13.86,6.93,11.88,7.92,14.85,11.88,21.78,17.82,27.72c5.94,5.94,3.96,8.91,7.92,10.89s4.95,1.98,5.94,4.95,4.95,4.95,8.91,5.94,7.92-1.98,10.89,1.98,2.97,1.98,2.97,6.93,3.96,6.93,6.93,6.93,9.9-3.96,11.88-1.98-4.95,3.2,0,7.05,7.92,5.82,10.89,5.82,3.96,4.95,5.94,5.94,7.92,3.96,13.86,2.97c5.94-.99,13.86-.99,17.82.99s11.88,0,15.84.99,7.92,2.97,11.88,2.97,5.94-3.96,7.92-2.97,4.95,3.96,5.94,3.96,3.96-1.98,3.96-3.96-.99-2.97-4.95-6.93-3.96-5.94-2.97-8.91-1.98-2.97,2.97-2.97,1.98-2.48,4.95-2.73,7.92,1.74,11.88-3.21,3.96-5.94,8.91-7.92,4.95-4.95,9.9-5.94,13.86-1.98,13.86-7.92,2.97-14.85,1.98-18.81-3.96-5.94-5.94-8.91,0-6.93,0-8.91,1.98-.99,2.97-3.96.99-5.94,1.98-6.93,11.88-5.94,12.87-9.9,5.94-11.88,5.94-12.87,2.97-5.94,7.92-6.93,7.92-2.97,9.9-6.93,2.97-8.91,4.95-11.88,2.97-6.88,0-6.9-2.86-3.99-5.88-5.47-2.04-5.45.93-7.43,5.94-3.96,4.95-5.94-1.98-6.93-2.97-8.91-1.98-5.94-4.95-6.93-9.9,1.98-10.89-.99-5.94-1.98-9.9-4.95-5.94-7.92-3.96-10.89,3.96-5.94-.99-9.9-2.97-8.91-7.92-10.89-5.94-1.98-16.83-1.98-27.72-.99-34.65,0-10.89,7.92-13.86,2.97-6.93-14.85-13.86-14.85-6.93,2.97-17.82,2.97-13.86.99-19.8,0-15.84-5.94-17.82-5.94-12.87,3.96-16.83,0-24.75-3.96-27.72-7.92-7.92-5.94-13.86-7.92-7.92-6.93-7.92-6.93c0,0-7.92-1.98-8.91-5.94s-3.96-9.9-12.87-13.86-34.65-18.81-38.61-26.73-11.88-5.94-12.87-9.9-10.89-12.87-11.88-17.82-13.86-12.87-13.86-16.83,1.98-5.94,6.93-6.93,2.97-1.98-3.96-5.94-13.07.17-14.45-3.87c-1.39-4.05-7.33-8.01-2.38-14.94s5.94-4.95,9.9-6.93,7.92-2.97,7.92,1.98,0,6.93,6.93,0,14.85-9.9,19.8-12.87,1.98-1.98-.99-5.94-.99-8.91-2.97-10.89-3.96-2.97-1.98-5.94,4.95-7.92,7.92-7.92,6.93-.99,4.95,2.97-2.97,4.95-3.96,6.93,0,3.96,2.97.99,5.94-7.92,9.9-10.89,5.94-10.89,10.89-12.87,8.91-1.98,12.87-6.93,6.93-6.93,6.93-3.96,0,8.91,0,12.87-1.98,10.89,1.98,9.9,4.95-3.96,6.93-5.94,4.95-3.96,8.91-6.93,4.95-4.95,6.93-6.93,6.93-2.97,8.91-3.96,4.95-1.98,7.92-4.95,6.93-7.92,7.92-5.94,3.96,1.98,3.96,3.96.99,4.95-1.98,6.93,1.98,2.97,4.95-.99,6.93-4.95,7.92-8.91,3.96-4.95,5.94-6.93,4.95,1.98,5.94,0,7.92-6.93,11.88-10.89,6.93-3.96,8.91-6.93,3.96-2.97,4.95-4.95.99-3.96-1.98-8.91-4.95-10.89-4.95-14.85.99-3.96,3.96-5.94,2.97-3.96,6.93-3.96,7.92,0,7.92-1.98,3.96-1.98,4.95-4.95,2.97-6.93-.99-4.95-4.95,3.96-7.92,3.96-4.95.99-7.92,2.97-4.95-.99-9.9-.99-9.9-1.98-11.88-1.98-.99,3.96-3.96,4.95-9.9.99-9.9-.99-2.97-7.92-1.98-8.91,1.98-1.98,4.95-1.98,3.96,0,3.96-3.96,1.98-8.91,1.98-11.88-.99-7.92,2.97-7.92,3.96,0,3.96,1.98-1.98,4.95,0,6.93,1.98,3.96.99,5.94-1.98,1.98-1.98,4.95,0,2.97,5.94,2.97,5.94.99,8.91-4.95,6.93-10.89,7.92-12.87.99-2.97,2.97-2.97,2.97,0,2.97-3.96-.99-5.94.99-6.93,4.95-2.97,4.95-5.94.99-8.91,1.98-8.91,1.98-.99,1.98,3.96-.99,9.9,0,9.9,1.98,0,4.95-1.98,4.95-2.97,6.93-2.97.99.99.99,3.96-1.98,3.96-5.94,6.93-7.92,7.92-9.9,8.91-.99,1.98-1.98,3.96-3.96,5.94,1.98,4.95,6.93-3.96,8.91-4.95,1.98,2.97,4.95-2.97,7.92-7.92,7.92-10.89,0-3.96,2.97-3.96,2.97-2.97,4.95-3.96,3.96-.99,3.96-3.96,1.98-2.97,4.95-2.97,1.98-.99,2.97-3.96,0-2.97,2.97-2.97,5.94-2.97,8.91-2.97,4.95,0,6.93-1.98,3.96-6.93,6.93-6.93,11.88,0,13.86-.99,1.98-2.97,1.98-5.94,1.98-4.95,3.96-5.94,3.96-1.98,3.96-3.96,2.97-1.98,4.95-1.98,2.97.99,4.95-.99,1.98-1.98,1.98-6.93-1.98-4.95-2.97-6.93,0-6.93-.99-7.92-1.98-3.96-2.97-3.96-5.94-1.98-8.91-1.98-2.97-2.97,0-5.94,6.93-10.89,9.9-11.88,3.96-4.95,8.91-7.92,9.9-6.93,13.86-6.93,4.95.99,5.94-.99,3.96-5.94,4.95-6.93,1.98-1.98,3.96-5.94-2.97-.99-5.94.99-5.94,6.93-9.9,7.92-11.88,2.97-14.85,4.95-4.95,6.93-12.87,7.92-14.85,0-18.81,0-2.97-.99-3.96-2.97-2.97-.99-6.93,1.98-3.96,3.96-7.92,3.96-6.93,2.97-8.91,4.95-5.94,6.93-11.88,5.94-9.9-.99-9.9.99-5.94,4.95-16.83,7.92-8.91,4.95-15.84,5.94-10.89,5.94-13.86,5.94-6.93,0-8.91,1.98-.99,2.97-5.94,2.97-5.94,0-8.91,2.97-10.89,9.9-13.86,9.9-12.87-.99-13.86-.99-9.9,7.92-13.86,8.91-9.9.99-11.88.99-2.97-2.97-2.97-4.95-1.98-1.98-7.92,4.95-7.92,9.9-12.87,9.9-27.72,0-32.67.99-6.93,3.96-10.89,3.96-21.78,2.97-25.74,4.95-12.87-1.98-12.87-5.94-6.93-1.98-9.9-1.98-6.93-2.97-12.87-2.97-8.91.99-15.84-.99-10.89-4.95-9.9-11.88,1.98-9.9,4.95-13.86,2.97-8.91,2.97-14.85,2.97-10.89,1.98-14.85-3.96-14.85-2.97-16.83,2.97-4.95-1.98-10.89-6.93-4.95-9.9-5.94-4.95-3.96-4.95-7.92,0-6.93-2.97-12.87-4.95-7.92-11.88-12.87-7.53-5.13-16.14-5.54-14.55,2.57-17.52.59-7.92-6.93-11.88-8.91-5.94-4.95-14.85-4.95-15.84,0-17.82-2.97S380.66,0,377.69.99s-16.34,15.35-16.34,24.26Z"/>
  </g>
</svg>