<svg width="24" height="22" viewBox="0 0 24 22" fill="none" xmlns="http://www.w3.org/2000/svg">
<g clip-path="url(#clip0_406_338)">
<path d="M23.9435 7.86631C23.4649 3.66468 19.9318 0.0278585 15.6104 0.000306878C12.0069 -0.0272448 10.1206 1.80494 8.31888 3.66468C7.26317 4.73919 5.98223 5.56574 4.64498 6.30964C1.61859 7.97651 -0.450617 9.82247 0.0842802 14.1343C0.605101 18.3222 4.09601 21.9865 8.40334 22.0003C15.357 22.0279 24.8303 15.7599 23.9294 7.86631H23.9435ZM13.1611 4.91828C12.0772 7.59079 7.96698 10.5388 5.30657 10.5388C4.91243 10.5388 4.58868 10.222 4.58868 9.83625C4.58868 9.45053 4.91243 9.13368 5.30657 9.13368C7.3617 9.13368 10.9652 6.51627 11.8239 4.40857C11.9646 4.0504 12.3869 3.87132 12.7529 4.00907C13.1189 4.14683 13.3019 4.56011 13.1611 4.91828Z" fill="#7F5858"/>
</g>
<defs>
<clipPath id="clip0_406_338">
<rect width="24" height="22" fill="white"/>
</clipPath>
</defs>
</svg>
