<svg width="26" height="26" viewBox="0 0 26 26" fill="none" xmlns="http://www.w3.org/2000/svg">
<g clip-path="url(#clip0_453_48)">
<path d="M25.5601 14.3C24.9697 13.0286 23.8353 12.1 22.5735 11.8571C22.5735 11.5714 22.5619 11.2857 22.5387 11H0.0347284C0.0115761 11.3286 0 11.6571 0 11.9857C0 16.9714 2.31523 21.3143 5.74176 23.6143C6.13535 23.8714 5.98486 24.6 5.54497 24.6V26H17.0285V24.6C16.5886 24.6 16.4381 23.8714 16.8317 23.6143C17.2021 23.3714 17.5494 23.1 17.8851 22.8143C18.1861 22.8429 18.5334 22.8571 18.9038 22.8571C20.1309 22.8571 21.6821 22.6429 23.1175 21.8571C24.8077 20.9286 25.4907 19.4571 25.7801 18.3857C26.1968 16.8 25.9653 15.1857 25.5485 14.3H25.5601ZM24.0089 17.6714C23.7658 18.5857 23.2101 19.2857 22.3651 19.7429C21.5895 20.1714 20.7676 20.3857 19.992 20.4714C21.2306 18.7 22.0988 16.5286 22.423 14.1571C23.0597 14.3286 23.6385 14.8143 23.9279 15.4286C24.0899 15.7857 24.252 16.7 23.9973 17.6571L24.0089 17.6714Z" fill="white"/>
</g>
<g clip-path="url(#clip1_453_48)">
<path d="M11.522 2.29811C10.3303 3.10188 10.0116 4.4717 11.1202 5.21887C13.171 6.36226 12.4227 9.37358 9.74835 8.96604V8.90943C10.6075 8.60377 10.9955 8.02641 11.0509 7.50566C11.2172 6.3849 9.41578 6.11321 9.13865 5.0717C8.55666 3.80377 9.78992 1.96981 11.5082 2.29811H11.522Z" fill="white"/>
<path d="M14.3628 4.46038C13.2127 4.64151 12.4506 3.40755 12.8801 2.58113C13.088 1.89057 14.3074 1.76604 14.2242 1.00755C14.2242 0.577361 13.8778 0.316983 13.4067 0.0226438C15.1803 -0.203771 15.5683 1.81132 14.1965 2.52453C13.4482 3 13.6145 3.90566 14.3767 4.46038H14.3628Z" fill="white"/>
</g>
<defs>
<clipPath id="clip0_453_48">
<rect width="26" height="15" fill="white" transform="translate(0 11)"/>
</clipPath>
<clipPath id="clip1_453_48">
<rect width="6" height="9" fill="white" transform="translate(9)"/>
</clipPath>
</defs>
</svg>
