<svg width="30" height="27" viewBox="0 0 30 27" fill="none" xmlns="http://www.w3.org/2000/svg">
<g clip-path="url(#clip0_316_292)">
<path d="M15.0227 19.4286C18.421 19.4286 21.1758 16.6999 21.1758 13.3339C21.1758 9.96794 18.421 7.23926 15.0227 7.23926C11.6245 7.23926 8.86963 9.96794 8.86963 13.3339C8.86963 16.6999 11.6245 19.4286 15.0227 19.4286Z" fill="#A76666" stroke="#A76666" stroke-width="1.37" stroke-miterlimit="10"/>
<path d="M20.9655 26.6973C19.99 26.6973 19.0595 26.1771 18.5643 25.2703C17.8439 23.9622 18.3392 22.3121 19.6748 21.5986C20.9805 20.8405 22.7214 21.2418 23.4867 22.5351C24.2521 23.8284 23.8769 25.4487 22.5713 26.1919L22.2711 26.3554C21.8659 26.5784 21.4157 26.6825 20.9805 26.6825L20.9655 26.6973ZM8.85443 26.5933C8.41921 26.5933 7.98399 26.4892 7.56378 26.2514L7.29365 26.0879C6.003 25.3149 5.56778 23.6649 6.34817 22.3716C7.11356 21.0783 8.80941 20.677 10.1 21.4351C11.4057 22.1783 11.961 23.873 11.2106 25.1662C10.7003 26.0581 9.7999 26.5784 8.85443 26.5784V26.5933ZM2.73137 15.9796C2.73137 15.9796 2.70135 15.9796 2.68634 15.9796C1.2006 15.9499 0 14.8796 0 13.3931V13.0512C0.0450225 11.5647 1.29065 10.3606 2.82141 10.4349C4.33717 10.4795 5.50775 11.7282 5.46273 13.2296C5.41771 14.6863 4.2021 15.9647 2.73137 15.9647V15.9796ZM27.2686 16.0985C27.2686 16.0985 27.2386 16.0985 27.2236 16.0985C25.7379 16.0688 24.5373 14.9985 24.5373 13.512V13.1701C24.5823 11.6836 25.8279 10.4795 27.3587 10.5539C28.8744 10.5985 30.045 11.8471 30 13.3485C29.955 14.8053 28.7394 16.0837 27.2686 16.0837V16.0985ZM21.2806 5.55919C20.8004 5.55919 20.3202 5.44027 19.8849 5.1727C18.5643 4.44431 18.024 2.76456 18.7444 1.45643C19.4797 0.148306 21.0705 -0.371972 22.3912 0.356417L22.6913 0.519933C23.982 1.29292 24.4172 2.94294 23.6368 4.2362C23.1266 5.08351 22.2111 5.55919 21.2956 5.55919H21.2806ZM8.89945 5.45514C7.95398 5.45514 7.02351 4.99432 6.51326 4.14701C5.74787 2.85375 6.10805 1.24832 7.41371 0.490203L7.68384 0.341552C9.0045 -0.386837 10.6703 0.0888457 11.3907 1.39697C12.1261 2.7051 11.6458 4.35512 10.3252 5.06865C9.87494 5.32135 9.37969 5.45514 8.88444 5.45514H8.89945Z" fill="#A76666"/>
</g>
<defs>
<clipPath id="clip0_316_292">
<rect width="30" height="26.6977" fill="white"/>
</clipPath>
</defs>
</svg>
