<svg width="54" height="54" viewBox="0 0 54 54" fill="none" xmlns="http://www.w3.org/2000/svg">
<g clip-path="url(#clip0_396_171)">
<path d="M23.8009 13.6279C23.4312 14.432 22.4804 14.7839 21.677 14.4146C20.8729 14.045 20.5209 13.0942 20.8906 12.2901L13.4678 8.87793L4.43478 28.5283L11.8576 31.9405C12.2273 31.1364 13.1781 30.7845 13.9822 31.1541C14.7856 31.5234 15.1376 32.4742 14.7679 33.2783L40.5324 45.1219L49.5654 25.4715L23.8009 13.6279ZM14.9021 29.1529C14.098 28.7832 13.7463 27.8318 14.116 27.0278C14.4856 26.2237 15.4364 25.8717 16.2405 26.2413C17.0439 26.6107 17.3959 27.5615 17.0263 28.3656C16.6566 29.1696 15.7056 29.5222 14.9021 29.1529ZM17.1604 24.2402C16.3563 23.8706 16.0043 22.9197 16.374 22.1157C16.7433 21.3121 17.6947 20.9591 18.4988 21.3287C19.3022 21.698 19.6537 22.65 19.2843 23.4535C18.9146 24.2575 17.9638 24.6095 17.1604 24.2402ZM19.4187 19.3274C18.6146 18.9577 18.2627 18.0069 18.6323 17.2028C19.0017 16.3994 19.9528 16.0468 20.7569 16.4164C21.5603 16.7858 21.912 17.7372 21.5426 18.5407C21.1729 19.3447 20.2222 19.6967 19.4187 19.3274Z" fill="#533232"/>
</g>
<defs>
<clipPath id="clip0_396_171">
<rect width="39.7289" height="39.7289" fill="white" transform="translate(17.248 0.654297) rotate(24.6876)"/>
</clipPath>
</defs>
</svg>
