<svg width="34" height="42" viewBox="0 0 34 42" fill="none" xmlns="http://www.w3.org/2000/svg">
<g clip-path="url(#clip0_408_342)">
<path d="M30.0013 2.17285H3.9987C1.7887 2.17285 0 3.92527 0 6.09044V31.1384C0 33.5425 1.98826 35.4904 4.44217 35.4904H29.5652C32.0191 35.4904 34.0074 33.5425 34.0074 31.1384V6.09044C34.0074 3.92527 32.2187 2.17285 30.0087 2.17285H30.0013ZM7.31 30.798C5.37348 30.798 3.80652 29.2629 3.80652 27.3656C3.80652 25.4684 5.37348 23.9332 7.31 23.9332C9.24652 23.9332 10.8135 25.4684 10.8135 27.3656C10.8135 29.2629 9.24652 30.798 7.31 30.798ZM26.5274 30.798C24.5909 30.798 23.0239 29.2629 23.0239 27.3656C23.0239 25.4684 24.5909 23.9332 26.5274 23.9332C28.4639 23.9332 30.0309 25.4684 30.0309 27.3656C30.0309 29.2629 28.4639 30.798 26.5274 30.798ZM30.3043 18.828H3.69565V7.95871C3.69565 6.76389 4.68609 5.79354 5.90565 5.79354H28.0943C29.3139 5.79354 30.3043 6.76389 30.3043 7.95871V18.828Z" fill="#904E4E"/>
<path d="M7.69432 41.9996L11.6117 33.2375L6.86649 31.21L2.04736 41.9996H7.69432Z" fill="#904E4E"/>
<path d="M32.6918 41.9996L27.8727 31.21L23.1274 33.2375L27.0448 41.9996H32.6918Z" fill="#904E4E"/>
<path d="M27.9096 36.9092H7.31006V39.0816H27.9096V36.9092Z" fill="#904E4E"/>
<path d="M26.9785 0H7.02197V2.17241H26.9785V0Z" fill="#904E4E"/>
</g>
<defs>
<clipPath id="clip0_408_342">
<rect width="34" height="42" fill="white"/>
</clipPath>
</defs>
</svg>
